# xmcd
#
# Track frame offsets: 
#        150
#        13950
#        27175
#        39125
#        50548
#        61385
#        73405
#        84063
#        95623
#        108788
#        121145
#        132615
#        145478
#        157018
#        170125
#        182283
#
# Disc length: 2595 seconds
#
# Revision: 3
# Processed by: cddbd v1.5.2PL0 Copyright (c) Steve Scherf et al.
# Submitted via: ExactAudioCopy v1.0b3
#
DISCID=ce0a2110,db0a2110
DTITLE=Glen Campbell - Great Hits
DYEAR=1992
DGENRE=Country
TTITLE0=Wichita lineman (1968)
TTITLE1=Gentle on my mind (1967)
TTITLE2=Galveston (1969)
TTITLE3=Dream baby (how long must I dream) (1971)
TTITLE4=Reason to believe (1968)
TTITLE5=It's over (1967)
TTITLE6=Elusive butterfly (1968)
TTITLE7=Dreams of the everyday housewife (1968)
TTITLE8=Where's the playground Susie (1969)
TTITLE9=I wanna live (1968)
TTITLE10=Hey little one (1968)
TTITLE11=Break my mind (1969)
TTITLE12=That's all that matters (1968)
TTITLE13=Turn around and look at me (1961)
TTITLE14=Take me back (1968)
TTITLE15=The impossible dream (1969)
EXTD=Aad-dynamic -1992
EXTT0=
EXTT1=
EXTT2=
EXTT3=
EXTT4=
EXTT5=
EXTT6=
EXTT7=
EXTT8=
EXTT9=
EXTT10=
EXTT11=
EXTT12=
EXTT13=
EXTT14=
EXTT15=
PLAYORDER=
